<svg xmlns="http://www.w3.org/2000/svg" width="256" height="256" viewBox="0 0 100 100"><rect width="100" height="100" rx="20" fill="#000000" data-darkreader-inline-fill="" style="--darkreader-inline-fill:#000000;"></rect><path fill="#00ff00" d="M38.03 63.63L38.03 57.96Q36.50 59.22 33.84 60.13Q31.19 61.02 27.50 61.02L27.50 61.02Q23.54 61.02 20.03 59.90Q16.52 58.77 13.87 56.30Q11.21 53.82 9.64 49.86Q8.06 45.91 8.06 40.23L8.06 40.23Q8.06 35.10 9.59 31.23Q11.12 27.36 13.87 24.75Q16.61 22.14 20.39 20.84Q24.17 19.53 28.76 19.53L28.76 19.53Q32.90 19.53 36.36 20.57Q39.83 21.60 42.17 23.13L42.17 23.13Q43.52 24.03 44.38 25.16Q45.23 26.28 45.23 27.91L45.23 27.91L45.23 64.08Q45.23 68.58 43.75 71.69Q42.26 74.80 39.61 76.73Q36.95 78.66 33.35 79.56Q29.75 80.47 25.61 80.47L25.61 80.47Q21.02 80.47 17.83 79.52Q14.63 78.57 13.46 77.85L13.46 77.85Q10.76 76.32 10.76 73.98L10.76 73.98Q10.76 72.72 11.35 71.87Q11.93 71.02 12.83 70.56L12.83 70.56Q14.72 72.00 18.14 73.22Q21.56 74.44 25.61 74.44L25.61 74.44Q31.64 74.44 34.84 71.87Q38.03 69.30 38.03 63.63L38.03 63.63ZM28.31 55.08L28.31 55.08Q31.91 55.08 34.20 53.96Q36.50 52.83 38.03 51.39L38.03 51.39L38.03 27.99Q36.50 27.00 34.20 26.24Q31.91 25.48 28.76 25.48L28.76 25.48Q22.64 25.48 19.00 29.16Q15.35 32.85 15.35 40.14L15.35 40.14Q15.35 44.19 16.34 47.03Q17.33 49.86 19.09 51.66Q20.84 53.46 23.23 54.27Q25.61 55.08 28.31 55.08ZM57.29 55.80L57.29 55.80Q60.08 52.02 63.14 48.42Q66.20 44.82 69.26 41.05L69.26 41.05Q65.48 36.45 62.24 32.36Q59 28.27 55.58 23.85L55.58 23.85Q55.94 22.05 56.88 21.06Q57.83 20.07 59.36 20.07L59.36 20.07Q60.89 20.07 61.74 20.84Q62.60 21.60 63.59 22.86L63.59 22.86Q65.93 26.02 68.41 29.57Q70.88 33.13 73.58 36.63L73.58 36.63Q76.91 32.41 79.88 28.58Q82.85 24.75 86 20.16L86 20.16Q86.45 20.07 86.99 20.07L86.99 20.07Q88.88 20.07 89.96 20.93Q91.04 21.78 91.04 23.23L91.04 23.23Q91.04 24.21 90.63 25.11Q90.23 26.02 89.33 27.18L89.33 27.18Q86.54 30.60 83.61 34.16Q80.69 37.71 77.81 41.13L77.81 41.13Q81.32 45.72 84.88 50.18Q88.43 54.63 91.94 59.13L91.94 59.13Q91.76 60.84 90.77 61.83Q89.78 62.82 88.16 62.82L88.16 62.82Q86.63 62.82 85.69 62.06Q84.74 61.29 83.48 59.67L83.48 59.67Q81.05 56.43 78.48 52.79Q75.92 49.14 73.40 45.72L73.40 45.72Q70.25 49.86 67.05 54.18Q63.86 58.50 60.89 62.73L60.89 62.73L59.63 62.73Q57.56 62.73 56.52 61.83Q55.49 60.93 55.49 59.58L55.49 59.58Q55.49 58.86 55.80 58.10Q56.12 57.33 57.29 55.80Z" data-darkreader-inline-fill="" style="--darkreader-inline-fill:#181a1b;"></path></svg>